first trial
nRows=16
nColumns=38

# SIMM Motion File Header:
name Sujet_01_velo_100.mvnx
datacolumns 38
datarows 16
otherdata 1
range 4.1330 4.3830
endheader
time pelvis_tilt  pelvis_list  pelvis_rotation  pelvis_tx  pelvis_ty  pelvis_tz  hip_flexion_r  hip_adduction_r  hip_rotation_r  knee_angle_r  ankle_angle_r  subtalar_angle_r  mtp_angle_r  hip_flexion_l  hip_adduction_l  hip_rotation_l  knee_angle_l  ankle_angle_l  subtalar_angle_l  mtp_angle_l  lumbar_extension  lumbar_bending  lumbar_rotation  arm_flex_r  arm_add_r  arm_rot_r  elbow_flex_r  pro_sup_r  wrist_flex_r  wrist_dev_r  arm_flex_l  arm_add_l  arm_rot_l  elbow_flex_l  pro_sup_l  wrist_flex_l  wrist_dev_l
4.1330	-11.1976	4.3462	-9.6129	0.0000	1.2500	-0.0000	62.2398	-16.6384	-14.0759	52.8404	-3.5553	2.2737	0.0000	65.4988	-22.4928	-15.9385	91.0380	-11.0880	24.5122	-0.0000	-19.0698	-1.4295	-0.3305	92.3006	-20.7104	44.5637	9.3706	103.2127	-17.3712	2.3016	85.1084	-19.0251	57.2963	8.2605	106.2138	-14.2333	11.6306	
4.1500	-10.6784	5.0814	-8.5982	0.0000	1.2500	-0.0000	56.9297	-16.6916	-16.9350	47.4905	-5.8837	2.7967	0.0000	69.8377	-22.0591	-14.3561	96.2582	-10.2151	24.5108	-0.0000	-19.1802	-1.6023	-0.7098	91.3619	-21.4221	44.3948	9.4984	102.7255	-17.5184	2.2975	85.0193	-18.4817	57.0962	8.2671	106.7877	-14.1122	11.6785	
4.1670	-10.3549	5.5549	-7.5286	0.0000	1.2500	-0.0000	51.8815	-16.5335	-18.9637	42.5846	-8.4308	3.1284	0.0000	74.4538	-21.7207	-12.5455	99.9875	-9.3965	24.2020	-0.0000	-19.2156	-1.6106	-1.2849	90.1729	-21.6690	44.3734	9.3604	102.4017	-17.6046	2.1652	84.8594	-17.9804	56.2853	8.2108	107.6856	-14.0405	11.7827	
4.1830	-10.1633	5.8707	-6.4249	0.0000	1.2500	-0.0000	47.1293	-16.2418	-20.4123	38.3553	-10.9900	3.2634	0.0000	79.1414	-21.3216	-10.6947	102.4934	-8.5697	23.6313	-0.0000	-19.1988	-1.5162	-1.9587	88.8760	-21.6843	44.4192	9.0986	102.1718	-17.6614	1.9599	84.6612	-17.5018	55.1568	8.1428	108.7508	-13.9904	11.9158	
4.2000	-10.1400	6.1374	-5.4595	0.0000	1.2500	-0.0000	43.5026	-15.9274	-21.1578	35.7987	-12.7921	3.0062	-0.0000	83.1784	-20.7342	-9.0844	103.7575	-7.6683	22.8006	-0.0000	-19.1407	-1.4019	-2.5805	87.9694	-21.7144	44.4808	8.8611	101.9375	-17.6825	1.7730	84.5629	-17.1222	54.2522	8.1396	109.6201	-13.9436	12.0174	
4.2170	-10.3580	6.4260	-4.6271	0.0000	1.2500	-0.0000	41.2813	-15.7293	-20.9976	35.2629	-13.5531	2.0985	-0.0000	86.5049	-19.9104	-7.6651	103.6982	-6.5151	21.4990	0.0000	-19.0308	-1.2834	-3.1204	87.7038	-21.8461	44.4923	8.6679	101.6623	-17.6309	1.6331	84.6221	-16.8355	53.7402	8.2206	110.1982	-13.8846	12.0630	
4.2330	-10.7472	6.6746	-3.9286	0.0000	1.2500	-0.0000	40.1488	-15.6874	-20.1104	36.3698	-13.5799	0.7853	-0.0000	89.1827	-18.9995	-6.4263	102.4249	-5.2354	19.9521	-0.0000	-18.8776	-1.1422	-3.6074	87.8271	-21.9977	44.5171	8.4990	101.3821	-17.5431	1.5129	84.7717	-16.6494	53.4484	8.3596	110.5795	-13.8290	12.0760	
4.2500	-11.1291	6.7861	-3.5508	0.0000	1.2500	-0.0000	40.0500	-15.7711	-18.9416	39.0372	-12.9711	-0.3852	0.0000	90.6896	-18.2603	-5.6348	100.1671	-4.2839	18.8260	0.0000	-18.7217	-1.0088	-3.9790	88.0805	-22.1636	44.6922	8.4434	101.1104	-17.5233	1.4192	84.9525	-16.6657	53.4029	8.5626	110.6860	-13.8039	12.0679	
4.2670	-11.4779	6.7377	-3.5905	0.0000	1.2500	-0.0000	41.1388	-15.9743	-17.5471	43.6185	-11.4121	-1.3122	-0.0000	90.8555	-17.7663	-5.2334	96.9330	-3.7984	18.2899	-0.0000	-18.5500	-0.9053	-4.2321	88.4375	-22.4326	45.1576	8.5922	100.8025	-17.6645	1.3354	85.1426	-16.9759	53.7219	8.9035	110.3987	-13.8229	12.0365	
4.2830	-11.8212	6.5447	-3.9550	0.0000	1.2500	-0.0000	43.2916	-16.2307	-15.8581	49.7762	-9.2075	-2.1037	0.0000	89.8766	-17.4861	-5.2084	92.6762	-3.7011	18.1448	-0.0000	-18.3781	-0.8087	-4.3701	88.9291	-22.7133	45.7763	8.8533	100.5038	-17.8740	1.2774	85.3645	-17.4930	54.2855	9.3097	109.8379	-13.8715	11.9857	
4.3000	-12.0608	6.1640	-4.5494	0.0000	1.2500	-0.0000	46.0382	-16.4000	-14.1436	56.4176	-7.3527	-2.5126	-0.0000	87.7910	-17.5028	-5.8938	87.5271	-4.2031	18.5328	-0.0000	-18.2927	-0.6842	-4.3411	89.3762	-22.7284	46.2669	9.0400	100.3637	-17.9773	1.2997	85.6261	-18.0483	54.7653	9.5697	109.2830	-13.9350	11.9376	
4.3170	-12.1517	5.4866	-5.3855	0.0000	1.2500	-0.0000	49.3288	-16.3499	-12.4377	63.4469	-6.2468	-2.3146	-0.0000	84.4147	-17.8216	-7.6302	81.1454	-5.5836	19.8133	-0.0000	-18.3400	-0.4911	-4.1270	89.7027	-22.3069	46.5347	9.0620	100.4265	-17.8767	1.4574	86.0098	-18.6271	55.0357	9.5798	108.8187	-14.0272	11.9098	
4.3330	-12.1244	4.6244	-6.4495	0.0000	1.2500	-0.0000	53.2017	-16.1472	-10.7906	70.9708	-5.4820	-1.7065	0.0000	79.9226	-18.2874	-10.2016	73.8632	-7.5670	21.6277	0.0000	-18.4774	-0.2745	-3.7455	89.9739	-21.6200	46.6662	9.0135	100.6508	-17.6700	1.6943	86.4328	-19.2413	55.2287	9.4441	108.3599	-14.1354	11.8831	
4.3500	-12.0008	3.8679	-7.6071	0.0000	1.2500	-0.0000	57.3118	-16.0195	-9.4554	78.1951	-4.8340	-1.0909	0.0000	74.8888	-18.7417	-13.0913	66.8501	-9.5567	23.0863	-0.0000	-18.6553	-0.1293	-3.1983	90.2206	-20.9070	46.6498	8.9830	101.0563	-17.4764	1.8971	86.6519	-19.7587	55.3995	9.2658	107.9293	-14.2062	11.8244	
4.3670	-11.7448	3.3037	-8.8733	0.0000	1.2500	-0.0000	61.6629	-16.1329	-8.5520	85.1496	-4.3628	-0.5983	-0.0000	69.1735	-19.1073	-16.3871	60.3773	-11.2071	23.7392	-0.0000	-18.8908	-0.0996	-2.3889	90.4544	-20.2626	46.4655	9.0515	101.6825	-17.3249	2.0109	86.5639	-20.0521	55.5759	9.0363	107.5674	-14.2047	11.7097	
4.3830	-11.3974	2.8532	-10.2290	0.0000	1.2500	-0.0000	66.2504	-16.3444	-7.9391	91.7860	-4.0003	-0.1163	0.0000	62.9179	-19.2512	-20.0518	54.2008	-12.8671	24.0392	0.0000	-19.1655	-0.1419	-1.4158	90.6675	-19.5949	46.1329	9.1329	102.4859	-17.1866	2.0902	86.2719	-20.2461	55.7267	8.7657	107.2358	-14.1656	11.5640	
